<?xml version="1.0" encoding="UTF-8"?>
<svg id="Layer_1" data-name="Layer 1" xmlns="http://www.w3.org/2000/svg" viewBox="0 0 48 48">
  <defs>
    <style>
      .cls-1 {
        fill: #d94f00;
      }
    </style>
  </defs>
  <path class="cls-1" d="M44.73,15.24c-1.13-2.68-2.76-5.08-4.82-7.15-2.07-2.07-4.47-3.69-7.15-4.82-2.77-1.17-5.72-1.77-8.76-1.77s-5.98.59-8.76,1.77c-2.68,1.13-5.08,2.76-7.15,4.82-2.07,2.07-3.69,4.47-4.82,7.15-1.17,2.77-1.77,5.72-1.77,8.76s.59,5.98,1.77,8.76c1.13,2.68,2.76,5.08,4.82,7.15,2.07,2.07,4.47,3.69,7.15,4.82,2.77,1.17,5.72,1.77,8.76,1.77s5.98-.59,8.76-1.77c2.68-1.13,5.08-2.76,7.15-4.82,2.07-2.07,3.69-4.47,4.82-7.15,1.17-2.77,1.77-5.72,1.77-8.76s-.59-5.98-1.77-8.76ZM44.17,22.85h-7.84c-.09-3.18-.53-6.24-1.28-9.01,1.84-.56,3.53-1.26,5.03-2.09,1.03,1.35,1.88,2.81,2.55,4.38.9,2.14,1.43,4.39,1.55,6.71ZM32.82,33.57c-2.41-.55-5-.88-7.67-.95v-7.47h8.88c-.07,2.39-.35,4.71-.84,6.91-.11.51-.24,1.02-.37,1.51ZM14.81,32.06c-.49-2.2-.77-4.52-.84-6.91h8.88v7.47c-2.67.07-5.26.4-7.67.95-.13-.49-.26-.99-.37-1.51ZM15.18,14.43c2.41.55,5,.88,7.67.95v7.47h-8.88c.07-2.39.35-4.71.84-6.91.11-.51.24-1.02.37-1.51ZM25.15,3.94c.85.2,1.68.63,2.49,1.29,1.21.98,2.31,2.39,3.26,4.21.45.87.86,1.8,1.23,2.8-2.19.49-4.54.78-6.97.85V3.94ZM20.36,5.22c.81-.65,1.64-1.08,2.49-1.29v9.15c-2.43-.07-4.79-.36-6.97-.85.36-1,.77-1.93,1.23-2.8.95-1.82,2.05-3.24,3.26-4.21ZM22.85,34.91v9.15c-.85-.2-1.68-.63-2.49-1.29-1.21-.98-2.31-2.39-3.26-4.21-.45-.87-.86-1.8-1.23-2.8,2.19-.49,4.54-.78,6.97-.85ZM27.64,42.78c-.81.65-1.64,1.08-2.49,1.29v-9.15c2.43.07,4.79.36,6.97.85-.36,1-.77,1.93-1.23,2.8-.95,1.82-2.05,3.24-3.26,4.21ZM25.15,22.85v-7.47c2.67-.07,5.26-.4,7.67-.95.13.49.26.99.37,1.51.49,2.2.77,4.52.84,6.91h-8.88ZM38.28,9.72c.08.08.17.17.25.25-1.26.66-2.66,1.22-4.18,1.68-.41-1.16-.89-2.26-1.42-3.28-.7-1.34-1.48-2.5-2.34-3.47.43.15.85.31,1.27.49,2.41,1.02,4.57,2.47,6.42,4.33ZM16.14,5.39c.42-.18.84-.34,1.27-.49-.85.97-1.63,2.13-2.34,3.47-.53,1.02-1.01,2.12-1.42,3.28-1.52-.46-2.92-1.02-4.18-1.68.08-.09.17-.17.25-.25,1.86-1.86,4.02-3.31,6.42-4.33ZM7.93,11.75c1.49.83,3.19,1.53,5.03,2.09-.76,2.77-1.2,5.83-1.28,9.01H3.83c.13-2.32.65-4.57,1.55-6.71.66-1.57,1.52-3.04,2.55-4.38ZM3.83,25.15h7.84c.09,3.18.53,6.24,1.28,9.01-1.84.56-3.53,1.26-5.03,2.09-1.03-1.35-1.88-2.81-2.55-4.38-.9-2.14-1.43-4.39-1.55-6.71ZM9.72,38.28c-.08-.08-.17-.17-.25-.25,1.26-.66,2.66-1.22,4.18-1.68.41,1.16.89,2.26,1.42,3.28.7,1.34,1.48,2.5,2.34,3.47-.43-.15-.85-.31-1.27-.49-2.41-1.02-4.57-2.47-6.42-4.33ZM31.86,42.61c-.42.18-.84.34-1.27.49.85-.97,1.63-2.13,2.34-3.47.53-1.02,1.01-2.12,1.42-3.28,1.52.46,2.92,1.02,4.18,1.68-.08.09-.17.17-.25.25-1.86,1.86-4.02,3.31-6.42,4.33ZM40.07,36.25c-1.49-.83-3.19-1.53-5.03-2.09.76-2.77,1.2-5.83,1.28-9.01h7.84c-.13,2.32-.65,4.57-1.55,6.71-.66,1.57-1.52,3.04-2.55,4.38Z"/>
</svg>