<?xml version="1.0" encoding="UTF-8"?>
<svg id="Layer_1" data-name="Layer 1" xmlns="http://www.w3.org/2000/svg" viewBox="0 0 48 48">
  <defs>
    <style>
      .cls-1 {
        fill: #231f20;
        stroke: #231f20;
        stroke-miterlimit: 10;
        stroke-width: .5px;
      }
    </style>
  </defs>
  <path class="cls-1" d="M40.09,7.88C35.8,3.57,30.08,1.2,24,1.2S12.2,3.57,7.91,7.88C3.61,12.19,1.24,17.91,1.24,24s2.37,11.81,6.67,16.12c4.3,4.31,10.01,6.68,16.09,6.68s11.8-2.37,16.09-6.68c4.3-4.31,6.67-10.03,6.67-16.12s-2.37-11.81-6.67-16.12ZM15.51,23.48h-6.93c.06-3.77.81-7.31,2.07-10.37h5.86c-.63,3.15-.97,6.69-1,10.37ZM16.51,34.89h-5.86c-1.26-3.06-2.01-6.6-2.07-10.37h6.93c.03,3.68.38,7.22,1,10.37ZM11.11,12.07c2.22-4.76,5.73-8.23,9.82-9.4-1.15,1.16-2.19,2.98-3.05,5.4-.44,1.23-.82,2.57-1.14,4h-5.62ZM16.83,3.46c-1.66,1.11-3.19,2.62-4.52,4.48-.9,1.26-1.69,2.65-2.34,4.13h-4.12c2.6-3.96,6.45-7.02,10.99-8.61ZM5.2,13.11h4.33c-1.24,3.15-1.92,6.69-1.98,10.37H2.28c.09-3.77,1.14-7.31,2.92-10.37ZM2.28,24.52h5.26c.06,3.68.74,7.22,1.98,10.37h-4.33c-1.78-3.06-2.83-6.6-2.92-10.37ZM5.84,35.93h4.12c.66,1.48,1.44,2.86,2.34,4.13,1.34,1.87,2.86,3.37,4.52,4.48-4.54-1.59-8.39-4.65-10.99-8.61ZM11.11,35.93h5.62c.32,1.43.7,2.77,1.14,4,.86,2.42,1.9,4.24,3.05,5.4-4.09-1.17-7.6-4.64-9.82-9.4ZM23.48,45.7c-1.69-.37-3.35-2.56-4.63-6.12-.4-1.12-.75-2.35-1.05-3.65h5.68v9.77ZM23.48,34.89h-5.91c-.64-3.13-.99-6.67-1.02-10.37h6.93v10.37ZM23.48,23.48h-6.93c.03-3.7.38-7.24,1.02-10.37h5.91v10.37ZM23.48,12.07h-5.68c.3-1.3.65-2.53,1.05-3.65,1.27-3.56,2.94-5.75,4.63-6.12v9.77ZM45.72,23.48h-5.26c-.06-3.68-.74-7.22-1.98-10.37h4.33c1.78,3.06,2.83,6.6,2.92,10.37ZM32.49,23.48c-.03-3.68-.38-7.22-1-10.37h5.86c1.26,3.06,2.01,6.6,2.07,10.37h-6.93ZM39.42,24.52c-.06,3.77-.81,7.31-2.07,10.37h-5.86c.63-3.15.97-6.69,1-10.37h6.93ZM42.16,12.07h-4.12c-.66-1.48-1.44-2.86-2.34-4.13-1.34-1.87-2.86-3.37-4.52-4.48,4.54,1.59,8.39,4.65,10.99,8.61ZM36.89,12.07h-5.62c-.32-1.43-.7-2.77-1.14-4-.86-2.42-1.9-4.24-3.05-5.4,4.09,1.17,7.6,4.64,9.82,9.4ZM24.52,2.3c1.69.37,3.35,2.56,4.63,6.12.4,1.12.75,2.35,1.05,3.65h-5.68V2.3ZM24.52,13.11h5.91c.64,3.13.99,6.67,1.02,10.37h-6.93v-10.37ZM24.52,24.52h6.93c-.03,3.7-.38,7.24-1.02,10.37h-5.91v-10.37ZM24.52,45.7v-9.77h5.68c-.3,1.3-.65,2.53-1.05,3.65-1.27,3.56-2.94,5.75-4.63,6.12ZM30.12,39.93c.44-1.23.82-2.57,1.14-4h5.62c-2.22,4.76-5.73,8.23-9.82,9.4,1.15-1.16,2.19-2.98,3.05-5.4ZM31.17,44.54c1.66-1.11,3.19-2.62,4.52-4.48.9-1.26,1.69-2.65,2.34-4.13h4.12c-2.6,3.96-6.45,7.02-10.99,8.61ZM42.8,34.89h-4.33c1.24-3.15,1.92-6.69,1.98-10.37h5.26c-.09,3.77-1.14,7.31-2.92,10.37Z"/>
</svg>