<?xml version="1.0" encoding="UTF-8"?>
<svg id="Layer_1" data-name="Layer 1" xmlns="http://www.w3.org/2000/svg" viewBox="0 0 48 48">
  <defs>
    <style>
      .cls-1 {
        fill: #1a04ba;
        stroke: #1a04ba;
        stroke-miterlimit: 10;
        stroke-width: .75px;
      }
    </style>
  </defs>
  <path class="cls-1" d="M32.4,45.66H15.6c-7.31,0-13.26-5.95-13.26-13.26V15.6c0-7.31,5.95-13.26,13.26-13.26h16.79c7.31,0,13.26,5.95,13.26,13.26v16.8c0,7.31-5.95,13.26-13.26,13.26ZM15.6,5.58c-5.52,0-10.02,4.49-10.02,10.02v16.8c0,5.52,4.49,10.02,10.02,10.02h16.79c5.53,0,10.02-4.49,10.02-10.02V15.6c0-5.52-4.49-10.02-10.02-10.02H15.6Z"/>
  <path class="cls-1" d="M24,34.96c-6.04,0-10.96-4.92-10.96-10.96s4.92-10.96,10.96-10.96,10.96,4.92,10.96,10.96-4.92,10.96-10.96,10.96ZM24,16.36c-4.21,0-7.64,3.43-7.64,7.64s3.43,7.64,7.64,7.64,7.64-3.43,7.64-7.64-3.43-7.64-7.64-7.64Z"/>
  <path class="cls-1" d="M39,11.85c0,1.58-1.28,2.85-2.85,2.85s-2.85-1.28-2.85-2.85,1.28-2.85,2.85-2.85,2.85,1.28,2.85,2.85Z"/>
</svg>