<?xml version="1.0" encoding="UTF-8"?>
<svg id="Layer_1" data-name="Layer 1" xmlns="http://www.w3.org/2000/svg" viewBox="0 0 48 48">
  <defs>
    <style>
      .cls-1, .cls-2 {
        fill: #d94f00;
      }

      .cls-2 {
        stroke: #231f20;
        stroke-miterlimit: 10;
      }
    </style>
  </defs>
  <g>
    <path class="cls-1" d="M40.84,18.09c0,2.79-.68,5.43-1.88,7.74-2.86,5.84-7.92,12.81-13.6,20.23-.68.89-2.03.89-2.71,0-2.51-3.28-4.9-6.48-7.05-9.55l13.17-13.4h0c.34-.29.65-.6.93-.94l10.01-10.18c.74,1.89,1.14,3.95,1.14,6.1Z"/>
    <path class="cls-1" d="M29.69,22.18c1.04-1.27,1.67-2.89,1.67-4.66,0-4.06-3.29-7.36-7.36-7.36-1.92,0-3.66.73-4.97,1.93L29.21,2.08c4.81,1.56,8.66,5.23,10.48,9.91l-10.01,10.18Z"/>
    <path class="cls-1" d="M28.76,23.12l-13.17,13.4c-2.63-3.76-4.88-7.32-6.5-10.58-.49-.92-.89-1.9-1.2-2.91l10.76-10.58c-1.25,1.32-2.02,3.1-2.02,5.06,0,4.06,3.29,7.36,7.36,7.36,1.82,0,3.48-.66,4.76-1.75Z"/>
    <path class="cls-1" d="M18.8,12.31s-.09.09-.14.14l-10.76,10.58c-.48-1.56-.73-3.22-.73-4.93,0-4.8,2.01-9.12,5.22-12.19l6.41,6.41Z"/>
    <path class="cls-1" d="M29.21,2.08l-10.18,10.01c-.08.07-.16.15-.23.22l-6.41-6.41c3.02-2.88,7.11-4.65,11.61-4.65,1.82,0,3.57.29,5.21.82Z"/>
  </g>
  <line class="cls-1" x1="15.6" y1="36.52" x2="15.58" y2="36.54"/>
  <line class="cls-1" x1="29.21" y1="2.08" x2="29.21" y2="2.08"/>
  <line class="cls-2" x1="12.39" y1="5.91" x2="12.37" y2="5.88"/>
</svg>